<svg xmlns="http://www.w3.org/2000/svg" xmlns:xlink="http://www.w3.org/1999/xlink" width="108" height="108" viewBox="0 0 108 108"><defs><style>.a{fill:none;}.b{fill:#fff;}.c{fill:url(#a);}.d{fill:url(#b);}.e{fill:url(#c);}.f{clip-path:url(#d);}</style><linearGradient id="a" x1="48.54" y1="50.76" x2="42.47" y2="40.25" gradientUnits="userSpaceOnUse"><stop offset="0" stop-color="#099c3f"/><stop offset="0" stop-color="#fe520c"/><stop offset="1" stop-color="#fe5c4d"/><stop offset="1" stop-color="#fff"/></linearGradient><linearGradient id="b" x1="63.26" y1="64.06" x2="42.79" y2="28.6" xlink:href="#a"/><linearGradient id="c" x1="65.09" y1="79.47" x2="44.61" y2="44.01" gradientUnits="userSpaceOnUse"><stop offset="0" stop-color="#099c3f"/><stop offset="0" stop-color="#09b68d"/><stop offset="1" stop-color="#09db83"/></linearGradient><clipPath id="d"><rect class="a" x="54" width="54" height="108" transform="translate(162 108) rotate(180)"/></clipPath></defs><path class="b" d="M54,82c-24.89,0-28-3.11-28-28s3.11-28,28-28,28,3.11,28,28S78.89,82,54,82Z"/><circle class="c" cx="45.51" cy="45.51" r="6.07"/><path class="d" d="M75.84,56.43a2.45,2.45,0,0,1-.71-.11,2.24,2.24,0,0,1-.66-.32l-7.26-4.83a2.43,2.43,0,0,1,2.7-4l3.45,2.3C73,36.77,70.3,34.59,54,34.59c-18.14,0-19.41,1.27-19.41,19.41a2.43,2.43,0,0,1-4.86,0c0-20.86,3.41-24.27,24.27-24.27,21.23,0,24.26,5.17,24.27,24.24a2.31,2.31,0,0,1-.11.73,2.13,2.13,0,0,1-.41.79,2.48,2.48,0,0,1-.76.65,2.28,2.28,0,0,1-1,.28Z"/><path class="e" d="M54,78.27c-20.85,0-24.26-3.4-24.27-24.24a2.31,2.31,0,0,1,.11-.73,2.27,2.27,0,0,1,.4-.79,2.64,2.64,0,0,1,.77-.65,2.44,2.44,0,0,1,1.86-.18,2.24,2.24,0,0,1,.66.32l7.26,4.83a2.43,2.43,0,1,1-2.7,4l-3.46-2.31c.27,11.15,2,14,11.33,14.65L56.81,56.33a2.62,2.62,0,0,1,2.07-1.12,2.44,2.44,0,0,1,2,1.16l9,14.65c3.11-2.44,3.47-7.32,3.47-17a2.43,2.43,0,1,1,4.86,0C78.27,74.86,74.86,78.27,54,78.27ZM51.6,73.4H54a69.07,69.07,0,0,0,11.35-.59L58.81,62.2Z"/><g class="f"><path class="d" d="M75.84,56.43a2.45,2.45,0,0,1-.71-.11,2.24,2.24,0,0,1-.66-.32l-7.26-4.83a2.43,2.43,0,0,1,2.7-4l3.45,2.3C73,36.77,70.3,34.59,54,34.59c-18.14,0-19.41,1.27-19.41,19.41a2.43,2.43,0,0,1-4.86,0c0-20.86,3.41-24.27,24.27-24.27,21.23,0,24.26,5.17,24.27,24.24a2.31,2.31,0,0,1-.11.73,2.13,2.13,0,0,1-.41.79,2.48,2.48,0,0,1-.76.65,2.28,2.28,0,0,1-1,.28Z"/></g></svg>