<svg xmlns="http://www.w3.org/2000/svg" xmlns:xlink="http://www.w3.org/1999/xlink" viewBox="0 0 66 66"><defs><style>.cls-1{fill:none;}.cls-2{fill:#dbf0ff;opacity:0.85;}.cls-3{fill:url(#Безымянный_градиент_520);}.cls-4{fill:url(#Безымянный_градиент_520-2);}.cls-5{fill:url(#Безымянный_градиент_396);}.cls-6{clip-path:url(#clip-path);}</style><linearGradient id="Безымянный_градиент_520" x1="26.57" y1="29.18" x2="19.41" y2="16.8" gradientUnits="userSpaceOnUse"><stop offset="0" stop-color="#099c3f"/><stop offset="0" stop-color="#fe520c"/><stop offset="1" stop-color="#fe5c4d"/><stop offset="1" stop-color="#fff"/></linearGradient><linearGradient id="Безымянный_градиент_520-2" x1="43.92" y1="44.86" x2="19.79" y2="3.06" xlink:href="#Безымянный_градиент_520"/><linearGradient id="Безымянный_градиент_396" x1="46.07" y1="63.02" x2="21.94" y2="21.22" gradientUnits="userSpaceOnUse"><stop offset="0" stop-color="#099c3f"/><stop offset="0" stop-color="#09b68d"/><stop offset="1" stop-color="#09db83"/></linearGradient><clipPath id="clip-path"><rect class="cls-1" x="33" y="2.2" width="30.8" height="61.6" transform="translate(96.8 66) rotate(180)"/></clipPath></defs><g id="Слой_5" data-name="Слой 5"><path class="cls-2" d="M33,66C3.67,66,0,62.33,0,33S3.67,0,33,0,66,3.67,66,33,62.33,66,33,66Z"/></g><g id="Слой_4" data-name="Слой 4"><g id="Слой_3" data-name="Слой 3"><circle class="cls-3" cx="22.99" cy="22.99" r="7.15"/><path class="cls-4" d="M58.74,35.86a2.72,2.72,0,0,1-.84-.13,2.79,2.79,0,0,1-.78-.37l-8.55-5.7a2.86,2.86,0,1,1,3.18-4.76l4.07,2.71C55.38,12.69,52.21,10.12,33,10.12c-21.38,0-22.88,1.5-22.88,22.88A2.86,2.86,0,0,1,4.4,33C4.4,8.41,8.41,4.4,33,4.4,58,4.4,61.6,10.49,61.6,33a2.9,2.9,0,0,1-.12.87,2.94,2.94,0,0,1-.48.93,2.89,2.89,0,0,1-.91.76,2.74,2.74,0,0,1-1.14.33Z"/></g><g id="Слой_2" data-name="Слой 2"><path class="cls-5" d="M33,61.6C8.42,61.6,4.4,57.59,4.4,33a2.9,2.9,0,0,1,.12-.87A2.94,2.94,0,0,1,5,31.24a3,3,0,0,1,.9-.76,3,3,0,0,1,1.15-.33,2.9,2.9,0,0,1,1,.11,3.13,3.13,0,0,1,.78.38l8.55,5.7a2.86,2.86,0,0,1-3.18,4.76l-4.08-2.72c.31,13.14,2.34,16.47,13.35,17.27l12.8-19.91a3.07,3.07,0,0,1,2.43-1.31,2.89,2.89,0,0,1,2.41,1.36L51.78,53.06c3.67-2.87,4.1-8.62,4.1-20.06a2.86,2.86,0,0,1,5.72,0C61.6,57.59,57.59,61.6,33,61.6Zm-2.82-5.73H33a81.12,81.12,0,0,0,13.37-.7l-7.7-12.52Z"/></g><g id="Слой_8" data-name="Слой 8"><g class="cls-6"><path class="cls-4" d="M58.74,35.86a2.72,2.72,0,0,1-.84-.13,2.79,2.79,0,0,1-.78-.37l-8.55-5.7a2.86,2.86,0,1,1,3.18-4.76l4.07,2.71C55.38,12.69,52.21,10.12,33,10.12c-21.38,0-22.88,1.5-22.88,22.88A2.86,2.86,0,0,1,4.4,33C4.4,8.41,8.41,4.4,33,4.4,58,4.4,61.6,10.49,61.6,33a2.9,2.9,0,0,1-.12.87,2.94,2.94,0,0,1-.48.93,2.89,2.89,0,0,1-.91.76,2.74,2.74,0,0,1-1.14.33Z"/></g></g></g></svg>