<svg xmlns="http://www.w3.org/2000/svg" xmlns:xlink="http://www.w3.org/1999/xlink" viewBox="0 0 108 108"><defs><style>.cls-1{fill:none;}.cls-2{fill:#e8f0ff;}.cls-3{fill:url(#Безымянный_градиент_520);}.cls-4{fill:url(#Безымянный_градиент_520-2);}.cls-5{fill:url(#Безымянный_градиент_396);}.cls-6{clip-path:url(#clip-path);}.cls-7{fill:url(#Безымянный_градиент_520-3);}</style><linearGradient id="Безымянный_градиент_520" x1="48.6" y1="50.8" x2="42.6" y2="40.4" gradientUnits="userSpaceOnUse"><stop offset="0" stop-color="#099c3f"/><stop offset="0" stop-color="#fe520c"/><stop offset="1" stop-color="#fe5c4d"/><stop offset="1" stop-color="#fff"/></linearGradient><linearGradient id="Безымянный_градиент_520-2" x1="63.16" y1="63.95" x2="42.91" y2="28.88" xlink:href="#Безымянный_градиент_520"/><linearGradient id="Безымянный_градиент_396" x1="64.97" y1="79.19" x2="44.72" y2="44.12" gradientUnits="userSpaceOnUse"><stop offset="0" stop-color="#099c3f"/><stop offset="0" stop-color="#09b68d"/><stop offset="1" stop-color="#09db83"/></linearGradient><clipPath id="clip-path"><rect class="cls-1" x="54" y="23.2" width="30.8" height="61.6" transform="translate(138.8 108) rotate(180)"/></clipPath><linearGradient id="Безымянный_градиент_520-3" x1="63.16" y1="63.95" x2="42.91" y2="28.88" xlink:href="#Безымянный_градиент_520"/></defs><g id="Слой_5" data-name="Слой 5"><rect class="cls-2" x="33.86" y="33.86" width="40.28" height="40.28" rx="10.01"/></g><g id="Слой_4" data-name="Слой 4"><g id="Слой_3" data-name="Слой 3"><circle class="cls-3" cx="45.6" cy="45.6" r="6"/><path class="cls-4" d="M75.6,56.4a2.38,2.38,0,0,1-.7-.11,2.22,2.22,0,0,1-.66-.31L67.07,51.2a2.4,2.4,0,0,1,2.66-4l3.42,2.28C72.78,37,70.12,34.8,54,34.8c-17.94,0-19.2,1.26-19.2,19.2A2.4,2.4,0,1,1,30,54c0-20.64,3.36-24,24-24,21,0,24,5.11,24,24a2.55,2.55,0,0,1-.1.72,2.43,2.43,0,0,1-.41.78,2.19,2.19,0,0,1-.75.64,2.27,2.27,0,0,1-1,.28Z"/></g><g id="Слой_2" data-name="Слой 2"><path class="cls-5" d="M54,78c-20.62,0-24-3.36-24-24a2.55,2.55,0,0,1,.1-.72,2.43,2.43,0,0,1,.41-.78,2.39,2.39,0,0,1,.75-.64,2.27,2.27,0,0,1,1-.28,2.4,2.4,0,0,1,.88.09,2.52,2.52,0,0,1,.66.32l7.17,4.78a2.4,2.4,0,0,1-2.66,4l-3.43-2.29c.27,11,2,13.83,11.21,14.49L56.78,56.3a2.59,2.59,0,0,1,2-1.1,2.4,2.4,0,0,1,2,1.14l8.92,14.49C72.84,68.42,73.2,63.6,73.2,54A2.4,2.4,0,0,1,78,54C78,74.63,74.63,78,54,78Zm-2.37-4.81H54a68.8,68.8,0,0,0,11.22-.58L58.76,62.11Z"/></g><g id="Слой_8" data-name="Слой 8"><g class="cls-6"><path class="cls-7" d="M75.6,56.4a2.38,2.38,0,0,1-.7-.11,2.22,2.22,0,0,1-.66-.31L67.07,51.2a2.4,2.4,0,0,1,2.66-4l3.42,2.28C72.78,37,70.12,34.8,54,34.8c-17.94,0-19.2,1.26-19.2,19.2A2.4,2.4,0,1,1,30,54c0-20.64,3.36-24,24-24,21,0,24,5.11,24,24a2.55,2.55,0,0,1-.1.72,2.43,2.43,0,0,1-.41.78,2.19,2.19,0,0,1-.75.64,2.27,2.27,0,0,1-1,.28Z"/></g></g></g></svg>