<svg xmlns="http://www.w3.org/2000/svg" xmlns:xlink="http://www.w3.org/1999/xlink" viewBox="0 0 108 108"><defs><style>.cls-1{fill:none;}.cls-2{fill:#dbf0ff;opacity:0.85;}.cls-3{fill:url(#Безымянный_градиент_520);}.cls-4{fill:url(#Безымянный_градиент_520-2);}.cls-5{fill:url(#Безымянный_градиент_396);}.cls-6{clip-path:url(#clip-path);}.cls-7{fill:url(#Безымянный_градиент_520-3);}</style><linearGradient id="Безымянный_градиент_520" x1="48.15" y1="50.53" x2="41.65" y2="39.27" gradientUnits="userSpaceOnUse"><stop offset="0" stop-color="#099c3f"/><stop offset="0" stop-color="#fe520c"/><stop offset="1" stop-color="#fe5c4d"/><stop offset="1" stop-color="#fff"/></linearGradient><linearGradient id="Безымянный_градиент_520-2" x1="63.93" y1="64.78" x2="41.99" y2="26.78" xlink:href="#Безымянный_градиент_520"/><linearGradient id="Безымянный_градиент_396" x1="65.88" y1="81.29" x2="43.94" y2="43.29" gradientUnits="userSpaceOnUse"><stop offset="0" stop-color="#099c3f"/><stop offset="0" stop-color="#09b68d"/><stop offset="1" stop-color="#09db83"/></linearGradient><clipPath id="clip-path"><rect class="cls-1" x="52" y="24" width="34" height="60"/></clipPath><linearGradient id="Безымянный_градиент_520-3" x1="63.93" y1="64.78" x2="41.99" y2="26.78" xlink:href="#Безымянный_градиент_520"/></defs><g id="Слой_5" data-name="Слой 5"><path class="cls-2" d="M54,84c-26.67,0-30-3.33-30-30s3.33-30,30-30,30,3.33,30,30S80.67,84,54,84Z"/></g><g id="Слой_4" data-name="Слой 4"><g id="Слой_3" data-name="Слой 3"><circle class="cls-3" cx="44.9" cy="44.9" r="6.5"/><path class="cls-4" d="M77.4,56.6a2.79,2.79,0,0,1-.76-.11,2.48,2.48,0,0,1-.71-.35L68.16,51A2.6,2.6,0,0,1,71,46.64l3.7,2.46C74.34,35.54,71.47,33.2,54,33.2c-19.44,0-20.8,1.36-20.8,20.8A2.6,2.6,0,0,1,28,54c0-22.36,3.64-26,26-26,22.75,0,26,5.53,26,26a2.36,2.36,0,0,1-.11.79,2.46,2.46,0,0,1-.44.85,2.58,2.58,0,0,1-.82.69,2.42,2.42,0,0,1-1,.3Z"/></g><g id="Слой_2" data-name="Слой 2"><path class="cls-5" d="M54,80c-22.34,0-26-3.64-26-26a2.65,2.65,0,0,1,.11-.79,2.46,2.46,0,0,1,.44-.85,2.7,2.7,0,0,1,.82-.69,2.46,2.46,0,0,1,1-.3,2.57,2.57,0,0,1,.95.1,2.48,2.48,0,0,1,.71.35L39.84,57A2.6,2.6,0,0,1,37,61.36l-3.71-2.47c.28,12,2.12,15,12.13,15.7L57,56.49a2.83,2.83,0,0,1,2.22-1.19,2.59,2.59,0,0,1,2.18,1.24l9.67,15.7C74.41,69.62,74.8,64.4,74.8,54A2.6,2.6,0,1,1,80,54C80,76.35,76.35,80,54,80Zm-2.57-5.21H54a74.72,74.72,0,0,0,12.16-.63l-7-11.39Z"/></g><g id="Слой_8" data-name="Слой 8"><g class="cls-6"><path class="cls-7" d="M77.4,56.6a2.79,2.79,0,0,1-.76-.11,2.48,2.48,0,0,1-.71-.35L68.16,51A2.6,2.6,0,0,1,71,46.64l3.7,2.46C74.34,35.54,71.47,33.2,54,33.2c-19.44,0-20.8,1.36-20.8,20.8A2.6,2.6,0,0,1,28,54c0-22.36,3.64-26,26-26,22.75,0,26,5.53,26,26a2.36,2.36,0,0,1-.11.79,2.46,2.46,0,0,1-.44.85,2.58,2.58,0,0,1-.82.69,2.42,2.42,0,0,1-1,.3Z"/></g></g></g></svg>