<svg xmlns="http://www.w3.org/2000/svg" xmlns:xlink="http://www.w3.org/1999/xlink" width="456" height="456" viewBox="0 0 456 456"><defs><style>.a{fill:none;}.b{fill:#fff;}.c{fill:url(#a);}.d{fill:url(#b);}.e{fill:url(#c);}.f{clip-path:url(#d);}</style><linearGradient id="a" x1="200.83" y1="211.88" x2="170.64" y2="159.59" gradientUnits="userSpaceOnUse"><stop offset="0" stop-color="#099c3f"/><stop offset="0" stop-color="#fe520c"/><stop offset="1" stop-color="#fe5c4d"/><stop offset="1" stop-color="#fff"/></linearGradient><linearGradient id="b" x1="274.1" y1="278.07" x2="172.22" y2="101.6" xlink:href="#a"/><linearGradient id="c" x1="283.18" y1="354.74" x2="181.3" y2="178.27" gradientUnits="userSpaceOnUse"><stop offset="0" stop-color="#099c3f"/><stop offset="0" stop-color="#09b68d"/><stop offset="1" stop-color="#09db83"/></linearGradient><clipPath id="d"><rect class="a" x="228" width="228" height="456" transform="translate(684 456) rotate(180)"/></clipPath></defs><path class="b" d="M228,367.33C104.15,367.33,88.67,351.85,88.67,228S104.15,88.67,228,88.67,367.33,104.15,367.33,228,351.85,367.33,228,367.33Z"/><circle class="c" cx="185.74" cy="185.74" r="30.19"/><path class="d" d="M336.67,240.08a11.91,11.91,0,0,1-3.53-.54,11.32,11.32,0,0,1-3.3-1.59l-36.09-24a12.08,12.08,0,0,1,13.4-20.1l17.18,11.46c-1.85-63-15.21-73.86-96.33-73.86-90.28,0-96.6,6.32-96.6,96.6a12.08,12.08,0,1,1-24.15,0c0-103.83,16.92-120.75,120.75-120.75,105.66,0,120.74,25.69,120.75,120.58a12,12,0,0,1-.5,3.66,12.37,12.37,0,0,1-2,3.93,12.09,12.09,0,0,1-3.81,3.22,11.77,11.77,0,0,1-4.84,1.4C337.27,240.06,337,240.08,336.67,240.08Z"/><path class="e" d="M228,348.75c-103.77,0-120.74-16.91-120.75-120.58a11.63,11.63,0,0,1,.51-3.65,11.85,11.85,0,0,1,2-3.93,12,12,0,0,1,3.81-3.23,12.06,12.06,0,0,1,9.26-.91,12.42,12.42,0,0,1,3.3,1.59l36.09,24.06a12.08,12.08,0,1,1-13.4,20.1l-17.23-11.49c1.32,55.48,9.87,69.54,56.36,72.9l54-84c2.24-3.49,6.14-5.24,10.27-5.54a12.06,12.06,0,0,1,10.16,5.74l44.87,72.91c15.5-12.13,17.3-36.4,17.3-84.69a12.08,12.08,0,1,1,24.15,0C348.75,331.82,331.82,348.75,228,348.75Zm-11.92-24.19q5.7,0,11.92,0c24.48,0,42.78-.46,56.46-2.93l-32.53-52.88Z"/><g class="f"><path class="d" d="M336.67,240.08a11.91,11.91,0,0,1-3.53-.54,11.32,11.32,0,0,1-3.3-1.59l-36.09-24a12.08,12.08,0,0,1,13.4-20.1l17.18,11.46c-1.85-63-15.21-73.86-96.33-73.86-90.28,0-96.6,6.32-96.6,96.6a12.08,12.08,0,1,1-24.15,0c0-103.83,16.92-120.75,120.75-120.75,105.66,0,120.74,25.69,120.75,120.58a12,12,0,0,1-.5,3.66,12.37,12.37,0,0,1-2,3.93,12.09,12.09,0,0,1-3.81,3.22,11.77,11.77,0,0,1-4.84,1.4C337.27,240.06,337,240.08,336.67,240.08Z"/></g></svg>